<svg width="124" height="30" viewBox="0 0 124 30" fill="none" xmlns="http://www.w3.org/2000/svg">
<g>
<path d="M5.196 0.2H14.764C15.05 0.2 15.18 0.355999 15.18 0.615999V3.216C15.18 3.476 15.05 3.632 14.764 3.632H11.748V20.584C11.748 20.87 11.618 21 11.332 21H8.628C8.368 21 8.212 20.87 8.212 20.584V3.632H5.196C4.936 3.632 4.78 3.476 4.78 3.216V0.615999C4.78 0.355999 4.936 0.2 5.196 0.2ZM27.659 6.544V11.77C27.659 13.278 27.165 14.344 26.203 14.942L27.555 20.532C27.633 20.844 27.477 21 27.191 21H24.643C24.383 21 24.253 20.87 24.201 20.636L22.953 15.514H20.639V20.584C20.639 20.844 20.483 21 20.223 21H17.675C17.415 21 17.259 20.844 17.259 20.584V3.216C17.259 2.956 17.415 2.8 17.675 2.8H23.915C26.359 2.8 27.659 4.1 27.659 6.544ZM20.639 12.16H23.239C23.915 12.16 24.279 11.796 24.279 11.12V7.194C24.279 6.518 23.915 6.154 23.239 6.154H20.639V12.16ZM42.0232 21H39.5012C39.2672 21 39.1372 20.87 39.0852 20.636L38.2532 17.36H33.3652L32.5592 20.636C32.5072 20.87 32.3772 21 32.1432 21H29.5952C29.3092 21 29.1792 20.844 29.2572 20.558L33.5732 3.164C33.6252 2.904 33.7812 2.8 34.0152 2.8H37.6292C37.8632 2.8 38.0192 2.904 38.0712 3.164L42.3872 20.558C42.4652 20.844 42.3352 21 42.0232 21ZM37.4472 14.344L35.8092 7.272L34.1712 14.344H37.4472ZM43.9953 20.584V3.216C43.9953 2.956 44.1253 2.8 44.4113 2.8H50.6513C53.0953 2.8 54.3953 4.126 54.3953 6.57V17.256C54.3953 19.7 53.0953 21 50.6513 21H44.4113C44.1253 21 43.9953 20.87 43.9953 20.584ZM47.5313 17.568H49.9233C50.5993 17.568 50.9633 17.23 50.9633 16.528V7.298C50.9633 6.596 50.5993 6.232 49.9233 6.232H47.5313V17.568ZM67.3693 3.216V5.816C67.3693 6.076 67.2653 6.258 66.9533 6.258H60.5313V10.262H65.4193C65.6793 10.262 65.8353 10.418 65.8353 10.704V13.278C65.8353 13.564 65.6793 13.72 65.4193 13.72H60.5313V17.568H66.9533C67.2653 17.568 67.3693 17.698 67.3693 17.984V20.584C67.3693 20.844 67.2653 21 66.9533 21H57.3853C57.1513 21 56.9953 20.844 56.9953 20.584V3.216C56.9953 2.956 57.1513 2.8 57.3853 2.8H66.9533C67.2653 2.8 67.3693 2.956 67.3693 3.216Z" fill="black"/>
<path d="M80.3959 3.944V6.752C80.3959 7.012 80.2399 7.168 79.9799 7.168H77.3799C77.0939 7.168 76.9639 7.012 76.9639 6.752V4.672C76.9639 3.996 76.5999 3.632 75.9239 3.632H74.5719C73.8699 3.632 73.5319 3.996 73.5319 4.672V16.528C73.5319 17.23 73.8959 17.568 74.5719 17.568H75.9239C76.5999 17.568 76.9639 17.23 76.9639 16.528V14.448C76.9639 14.188 77.0939 14.032 77.3799 14.032H79.9799C80.2399 14.032 80.3959 14.188 80.3959 14.448V17.256C80.3959 19.7 79.0699 21 76.6519 21H73.7399C71.2959 21 69.9699 19.7 69.9699 17.256V3.944C69.9699 1.5 71.2959 0.2 73.7399 0.2H76.6519C79.0699 0.2 80.3959 1.5 80.3959 3.944ZM82.9953 17.256V6.544C82.9953 4.1 84.2953 2.8 86.7393 2.8H89.6513C92.0953 2.8 93.3953 4.1 93.3953 6.544V17.256C93.3953 19.7 92.0953 21 89.6513 21H86.7393C84.2953 21 82.9953 19.7 82.9953 17.256ZM87.4153 17.646H89.0793C89.7553 17.646 90.1193 17.308 90.1193 16.606V7.194C90.1193 6.518 89.7553 6.154 89.0793 6.154H87.4153C86.7393 6.154 86.3753 6.518 86.3753 7.194V16.606C86.3753 17.308 86.7393 17.646 87.4153 17.646ZM95.9953 20.584V3.216C95.9953 2.956 96.1513 2.8 96.4113 2.8H102.651C105.095 2.8 106.395 4.1 106.395 6.544V11.64C106.395 14.058 105.095 15.358 102.651 15.384L99.3753 15.41V20.61C99.3753 20.87 99.2453 21.026 98.9593 21.026L96.4113 21C96.1513 21 95.9953 20.844 95.9953 20.584ZM99.3753 12.056L101.975 12.03C102.677 12.03 103.015 11.64 103.015 10.99V7.194C103.015 6.518 102.677 6.154 101.975 6.154L99.3753 6.18V12.056ZM112.739 2.8H115.651C118.095 2.8 119.395 4.1 119.395 6.544V8.26C119.395 8.52 119.265 8.676 118.979 8.676H116.353C116.093 8.676 115.937 8.52 115.937 8.26V7.168C115.937 6.492 115.599 6.128 114.897 6.128H113.467C112.817 6.128 112.427 6.492 112.427 7.168V9.378L118.719 11.406C119.161 11.562 119.395 11.874 119.395 12.368V17.256C119.395 19.7 118.095 21 115.651 21H112.739C110.321 21 108.995 19.7 108.995 17.256V15.566C108.995 15.28 109.151 15.15 109.411 15.15H112.037C112.323 15.15 112.453 15.28 112.453 15.566V16.658C112.453 17.36 112.843 17.698 113.493 17.698H114.897C115.573 17.698 115.937 17.36 115.937 16.658V14.032L109.697 12.004C109.229 11.848 108.995 11.536 108.995 11.042V6.544C108.995 4.1 110.321 2.8 112.739 2.8Z" fill="#40B074"/>
</g>
<defs>
<filter id="filter0_d_290_6338" x="0.779297" y="0.199997" width="122.615" height="28.826" filterUnits="userSpaceOnUse" color-interpolation-filters="sRGB">
<feFlood flood-opacity="0" result="BackgroundImageFix"/>
<feColorMatrix in="SourceAlpha" type="matrix" values="0 0 0 0 0 0 0 0 0 0 0 0 0 0 0 0 0 0 127 0" result="hardAlpha"/>
<feOffset dy="4"/>
<feGaussianBlur stdDeviation="2"/>
<feComposite in2="hardAlpha" operator="out"/>
<feColorMatrix type="matrix" values="0 0 0 0 0 0 0 0 0 0 0 0 0 0 0 0 0 0 0.25 0"/>
<feBlend mode="normal" in2="BackgroundImageFix" result="effect1_dropShadow_290_6338"/>
<feBlend mode="normal" in="SourceGraphic" in2="effect1_dropShadow_290_6338" result="shape"/>
</filter>
</defs>
</svg>
